Genre:Comedy
Language:English
 
http://www.imdb.com/title/tt1658797/

Source:LIMITED 720p BluRay x264-SHORTBREHD Thanks!

Format : MPEG-4
Format profile : Base Media
Codec ID : isom
File size : 1.20 GiB
Duration : 1h 28mn
Overall bit rate : 1 928 Kbps

Video
ID : 1
Format : AVC
Format/Info : Advanced Video Codec
Format profile : High@L4.1
Format settings, CABAC : Yes
Format settings, ReFrames : 3 frames
Codec ID : avc1
Codec ID/Info : Advanced Video Coding
Duration : 1h 28mn
Bit rate mode : Variable
Bit rate : 1 500 Kbps
Maximum bit rate : 6 807 Kbps
Width : 720 pixels
Height : 400 pixels
Display aspect ratio : 16:9
Frame rate mode : Constant
Frame rate : 23.976 fps
Color space : YUV
Chroma subsampling : 4:2:0
Bit depth : 8 bits
Scan type : Progressive
Bits/(Pixel*Frame) : 0.217
Stream size : 946 MiB (77%)
Writing library : x264

Audio
ID : 2
Format : AAC
Format/Info : Advanced Audio Codec
Format version : Version 4
Format profile : LC
Format settings, SBR : No
Codec ID : 40
Duration : 1h 28mn
Bit rate mode : Variable
Bit rate : 435 Kbps
Maximum bit rate : 530 Kbps
Channel(s) : 6 channels
Channel positions : Front: L C R, Side: L R, LFE
Sampling rate : 48.0 KHz
Stream size : 277 MiB (23%)


Plot:
Kenneth (who likes to call himself Kay) begins to realise he's just another wannabe bad boy... even less than a loser in fact..
 
http://leetleech.org/images/69756796415895252454.png
 
http://leetleech.org/images/48229461774918986223.png
 
http://leetleech.org/images/13858781587511949246.png
 
http://leetleech.org/images/62383001431818454851.png